<?xml version="1.0" standalone="no"?>
<!DOCTYPE svg PUBLIC "-//W3C//DTD SVG 20010904//EN"
 "http://www.w3.org/TR/2001/REC-SVG-20010904/DTD/svg10.dtd">
<svg version="1.0" xmlns="http://www.w3.org/2000/svg"
 width="260.000000pt" height="260.000000pt" viewBox="0 0 260.000000 260.000000"
 preserveAspectRatio="xMidYMid meet">
<metadata>
Created by potrace 1.11, written by Peter Selinger 2001-2013
</metadata>
<g transform="translate(0.000000,260.000000) scale(0.100000,-0.100000)"
fill="#000000" stroke="none">
<path d="M869 2588 c0 -7 -1 -202 -2 -433 l-2 -420 -433 0 -432 0 0 -432 c0
-339 3 -433 13 -434 6 0 199 -2 427 -3 228 -2 418 -3 421 -4 3 -1 6 -188 7
-415 0 -226 1 -420 1 -430 1 -16 27 -17 433 -15 l432 3 -1 431 0 431 433 -1
434 -1 0 433 c0 237 -3 432 -7 433 -5 0 -197 2 -428 3 -231 2 -423 3 -426 4
-3 1 -6 194 -6 430 l0 427 -431 3 c-342 2 -432 0 -433 -10z"/>
</g>
</svg>
